<svg width="6" height="10" viewBox="0 0 6 10" fill="none" xmlns="http://www.w3.org/2000/svg">
<path d="M0.521159 4.99996C0.521159 4.88885 0.541993 4.78135 0.58366 4.67746C0.625326 4.57301 0.680882 4.48607 0.750326 4.41663L4.58366 0.583292C4.73644 0.430515 4.93088 0.354126 5.16699 0.354126C5.4031 0.354126 5.59755 0.430515 5.75033 0.583292C5.9031 0.73607 5.97949 0.930515 5.97949 1.16663C5.97949 1.40274 5.9031 1.59718 5.75033 1.74996L2.50033 4.99996L5.75033 8.24996C5.9031 8.40274 5.97949 8.59718 5.97949 8.83329C5.97949 9.0694 5.9031 9.26385 5.75033 9.41663C5.59755 9.5694 5.4031 9.64579 5.16699 9.64579C4.93088 9.64579 4.73644 9.5694 4.58366 9.41663L0.750326 5.58329C0.666993 5.49996 0.608104 5.40968 0.573659 5.31246C0.53866 5.21524 0.521159 5.11107 0.521159 4.99996Z" fill="black"/>
</svg>
