<svg width="10" height="6" viewBox="0 0 10 6" fill="none" xmlns="http://www.w3.org/2000/svg">
<path d="M5.00033 5.47921C4.88921 5.47921 4.78171 5.45837 4.67782 5.41671C4.57338 5.37504 4.48644 5.31948 4.41699 5.25004L0.583659 1.41671C0.430881 1.26393 0.354492 1.06948 0.354492 0.833374C0.354492 0.597262 0.430881 0.402818 0.583659 0.25004C0.736436 0.0972626 0.930881 0.020874 1.16699 0.020874C1.4031 0.020874 1.59755 0.0972626 1.75033 0.25004L5.00033 3.50004L8.25032 0.25004C8.4031 0.0972626 8.59755 0.020874 8.83366 0.020874C9.06977 0.020874 9.26421 0.0972626 9.41699 0.25004C9.56977 0.402818 9.64616 0.597262 9.64616 0.833374C9.64616 1.06948 9.56977 1.26393 9.41699 1.41671L5.58366 5.25004C5.50033 5.33337 5.41005 5.39226 5.31283 5.42671C5.2156 5.46171 5.11144 5.47921 5.00033 5.47921Z" fill="black"/>
</svg>
