<svg width="18" height="20" viewBox="0 0 18 20" fill="none" xmlns="http://www.w3.org/2000/svg">
<path d="M0.75 3.5L17.25 3.5C17.4489 3.5 17.6397 3.57902 17.7803 3.71967C17.921 3.86032 18 4.05109 18 4.25C18 4.44891 17.921 4.63968 17.7803 4.78033C17.6397 4.92098 17.4489 5 17.25 5H16.5L16.5 18.5C16.5 18.8978 16.342 19.2794 16.0607 19.5607C15.7794 19.842 15.3978 20 15 20H3C2.60218 20 2.22064 19.842 1.93934 19.5607C1.65804 19.2794 1.5 18.8978 1.5 18.5L1.5 5H0.75C0.551088 5 0.360321 4.92098 0.219669 4.78033C0.0790176 4.63968 0 4.44891 0 4.25C0 4.05109 0.0790176 3.86032 0.219669 3.71967C0.360321 3.57902 0.551088 3.5 0.75 3.5ZM3 18.5H15L15 5L3 5L3 18.5ZM13.5 1.25C13.5 1.05109 13.421 0.860322 13.2803 0.71967C13.1397 0.579018 12.9489 0.5 12.75 0.5L5.25 0.5C5.05109 0.5 4.86032 0.579018 4.71967 0.71967C4.57902 0.860322 4.5 1.05109 4.5 1.25C4.5 1.44891 4.57902 1.63968 4.71967 1.78033C4.86032 1.92098 5.05109 2 5.25 2L12.75 2C12.9489 2 13.1397 1.92098 13.2803 1.78033C13.421 1.63968 13.5 1.44891 13.5 1.25Z" fill="white"/>
</svg>
