<svg width="20" height="21" viewBox="0 0 20 21" fill="none" xmlns="http://www.w3.org/2000/svg">
<g clip-path="url(#clip0_333_1327)">
<path d="M19.9905 10.6871C19.9905 9.86767 19.9224 9.26973 19.7752 8.64966H10.1992V12.348H15.8201C15.7068 13.2671 15.0948 14.6512 13.7349 15.5813L13.7159 15.7051L16.7436 17.9969L16.9534 18.0174C18.8798 16.2789 19.9905 13.721 19.9905 10.6871Z" fill="#4285F4"/>
<path d="M10.1992 20.4313C12.953 20.4313 15.2648 19.5454 16.9534 18.0174L13.7349 15.5813C12.8737 16.1682 11.7177 16.5779 10.1992 16.5779C7.50211 16.5779 5.21297 14.8395 4.39695 12.4366L4.27734 12.4466L1.12906 14.8273L1.08789 14.9391C2.76508 18.1945 6.21016 20.4313 10.1992 20.4313Z" fill="#34A853"/>
<path d="M4.39695 12.4366C4.18164 11.8165 4.05703 11.1521 4.05703 10.4656C4.05703 9.77902 4.18164 9.11467 4.38562 8.4946L4.37992 8.36253L1.19219 5.9436L1.08789 5.99208C0.396641 7.34299 0 8.86002 0 10.4656C0 12.0712 0.396641 13.5881 1.08789 14.939L4.39695 12.4366Z" fill="#FBBC05"/>
<path d="M10.1992 4.35336C12.1144 4.35336 13.4063 5.16168 14.1429 5.83718L17.0213 3.09107C15.2535 1.4855 12.953 0.5 10.1992 0.5C6.21016 0.5 2.76508 2.73672 1.08789 5.99214L4.38563 8.49466C5.21297 6.09183 7.50211 4.35336 10.1992 4.35336" fill="#EB4335"/>
</g>
<defs>
<clipPath id="clip0_333_1327">
<rect width="20" height="20" fill="white" transform="translate(0 0.5)"/>
</clipPath>
</defs>
</svg>
