<svg width="154" height="147" viewBox="0 0 154 147" fill="none" xmlns="http://www.w3.org/2000/svg">
<path d="M152.49 137.031C141.644 118.348 124.284 104.325 103.738 97.6516C113.586 91.7952 121.239 82.8674 125.522 72.2396C129.804 61.6119 130.479 49.872 127.442 38.8237C124.405 27.7753 117.825 18.0296 108.712 11.0836C99.5993 4.13767 88.4581 0.375732 77 0.375732C65.5419 0.375732 54.4007 4.13767 45.288 11.0836C36.1752 18.0296 29.595 27.7753 26.5583 38.8237C23.5215 49.872 24.1961 61.6119 28.4785 72.2396C32.7609 82.8674 40.4141 91.7952 50.2625 97.6516C29.716 104.325 12.3558 118.348 1.51018 137.031C1.05528 137.691 0.741784 138.438 0.589402 139.225C0.437021 140.012 0.449044 140.822 0.624715 141.604C0.800387 142.386 1.13591 143.123 1.6102 143.769C2.0845 144.416 2.68731 144.957 3.38075 145.359C4.0742 145.761 4.8433 146.015 5.63972 146.105C6.43614 146.196 7.24267 146.121 8.00863 145.885C8.77458 145.648 9.48341 145.256 10.0906 144.733C10.6977 144.21 11.1901 143.566 11.5367 142.844C18.1803 131.364 27.7259 121.833 39.2159 115.207C50.706 108.581 63.7364 105.093 77 105.093C90.2637 105.093 103.294 108.581 114.784 115.207C126.274 121.833 135.82 131.364 142.463 142.844C142.81 143.566 143.302 144.21 143.909 144.733C144.517 145.256 145.225 145.648 145.991 145.885C146.757 146.121 147.564 146.196 148.36 146.105C149.157 146.015 149.926 145.761 150.619 145.359C151.313 144.957 151.916 144.416 152.39 143.769C152.864 143.123 153.2 142.386 153.375 141.604C153.551 140.822 153.563 140.012 153.411 139.225C153.258 138.438 152.945 137.691 152.49 137.031ZM36.3125 52.75C36.3125 44.7028 38.6988 36.8363 43.1696 30.1453C47.6404 23.4542 53.9949 18.2392 61.4296 15.1597C68.8643 12.0801 77.0452 11.2744 84.9378 12.8443C92.8304 14.4143 100.08 18.2894 105.77 23.9796C111.461 29.6699 115.336 36.9197 116.906 44.8123C118.476 52.7049 117.67 60.8858 114.59 68.3205C111.511 75.7551 106.296 82.1096 99.6048 86.5805C92.9138 91.0513 85.0473 93.4375 77 93.4375C66.209 93.4375 55.86 89.1508 48.2296 81.5204C40.5992 73.89 36.3125 63.541 36.3125 52.75Z" fill="black"/>
</svg>
